<svg width="39" height="38" viewBox="0 0 39 38" fill="none" xmlns="http://www.w3.org/2000/svg">
<g clip-path="url(#clip0_50_82)">
<path d="M19.7143 0C9.23652 0 0.75 8.48652 0.75 18.9643C0.75 27.356 6.17853 34.4439 13.7168 36.9567C14.665 37.1226 15.0206 36.5537 15.0206 36.0558C15.0206 35.6054 14.9969 34.112 14.9969 32.5237C10.2321 33.4008 8.99946 31.3622 8.62018 30.2954C8.40683 29.7502 7.48232 28.0671 6.67634 27.6167C6.01259 27.2612 5.06437 26.3841 6.65263 26.3604C8.14607 26.3367 9.21281 27.7353 9.56839 28.3042C11.2752 31.1725 14.0013 30.3666 15.0917 29.8687C15.2577 28.6361 15.7555 27.8064 16.3007 27.3323C12.0812 26.8582 7.67196 25.2225 7.67196 17.9687C7.67196 15.9063 8.40683 14.1995 9.6158 12.872C9.42616 12.3979 8.76241 10.4541 9.80545 7.84647C9.80545 7.84647 11.3937 7.34866 15.0206 9.79031C16.5378 9.36362 18.1497 9.15027 19.7617 9.15027C21.3737 9.15027 22.9856 9.36362 24.5028 9.79031C28.1297 7.32496 29.7179 7.84647 29.7179 7.84647C30.761 10.4541 30.0972 12.3979 29.9076 12.872C31.1166 14.1995 31.8514 15.8826 31.8514 17.9687C31.8514 25.2462 27.4185 26.8582 23.199 27.3323C23.8864 27.9249 24.4791 29.0628 24.4791 30.8407C24.4791 33.3771 24.4554 35.4158 24.4554 36.0558C24.4554 36.5537 24.8109 37.1463 25.7592 36.9567C29.5241 35.686 32.7957 33.2665 35.1133 30.0389C37.431 26.8112 38.6779 22.9379 38.6786 18.9643C38.6786 8.48652 30.1921 0 19.7143 0Z" fill="black"/>
</g>
<defs>
<clipPath id="clip0_50_82">
<rect width="37.9286" height="37.9286" fill="white" transform="translate(0.75)"/>
</clipPath>
</defs>
</svg>
