<svg width="39" height="38" viewBox="0 0 39 38" fill="none" xmlns="http://www.w3.org/2000/svg">
<g clip-path="url(#clip0_50_80)">
<path d="M0.607178 2.71665C0.607178 1.2161 1.85408 1.52588e-05 3.39256 1.52588e-05H35.7504C37.2888 1.52588e-05 38.5357 1.2161 38.5357 2.71665V35.212C38.5357 36.7125 37.2888 37.9286 35.7504 37.9286H3.39256C1.85408 37.9286 0.607178 36.7125 0.607178 35.212V2.71665ZM12.3247 31.751V14.6238H6.63308V31.751H12.3247ZM9.48009 12.2841C11.4642 12.2841 12.6993 10.9709 12.6993 9.3257C12.6637 7.64499 11.4666 6.36727 9.51802 6.36727C7.56944 6.36727 6.29646 7.64736 6.29646 9.3257C6.29646 10.9709 7.53151 12.2841 9.44216 12.2841H9.48009ZM21.1147 31.751V22.1859C21.1147 21.6738 21.1526 21.1618 21.3043 20.7967C21.7144 19.775 22.6508 18.7154 24.2248 18.7154C26.2848 18.7154 27.1074 20.2847 27.1074 22.5888V31.751H32.7991V21.9275C32.7991 16.6649 29.9923 14.2185 26.2469 14.2185C23.2268 14.2185 21.8733 15.8779 21.1147 17.0465V17.1058H21.0768C21.0893 17.086 21.102 17.0663 21.1147 17.0465V14.6238H15.4254C15.4965 16.2311 15.4254 31.751 15.4254 31.751H21.1147Z" fill="black"/>
</g>
<defs>
<clipPath id="clip0_50_80">
<rect width="37.9286" height="37.9286" fill="white" transform="translate(0.607178 1.52588e-05)"/>
</clipPath>
</defs>
</svg>
