<svg width="39" height="38" viewBox="0 0 39 38" fill="none" xmlns="http://www.w3.org/2000/svg">
<g clip-path="url(#clip0_125_122)">
<path d="M19.0329 -0.252838C29.5067 -0.252838 37.9972 8.23763 37.9972 18.7114C37.9972 29.1853 29.5067 37.6757 19.0329 37.6757C8.55907 37.6757 0.0686035 29.1853 0.0686035 18.7114C0.0686035 8.23763 8.55907 -0.252838 19.0329 -0.252838ZM25.5748 26.4418C25.9232 25.3719 27.5581 14.7052 27.7596 12.6034C27.8205 11.9665 27.6198 11.5437 27.2255 11.3549C26.749 11.1257 26.0434 11.2403 25.2239 11.5358C24.1011 11.9404 9.74434 18.0366 8.91465 18.3891C8.12842 18.7233 7.38408 19.0876 7.38408 19.6154C7.38408 19.9868 7.60454 20.1954 8.21139 20.4119C8.84275 20.6371 10.4334 21.1191 11.3729 21.3783C12.2777 21.628 13.3073 21.4115 13.8841 21.0527C14.4957 20.6727 21.5567 15.9482 22.0632 15.5341C22.5697 15.1201 22.9735 15.6503 22.5595 16.0651C22.1454 16.4792 17.2992 21.1831 16.66 21.8342C15.884 22.6252 16.4348 23.4446 16.9555 23.7725C17.5497 24.1471 21.8254 27.0146 22.4694 27.4745C23.1134 27.9344 23.7661 28.143 24.3642 28.143C24.9624 28.143 25.2769 27.356 25.5748 26.4418Z" fill="black"/>
</g>
<defs>
<clipPath id="clip0_125_122">
<rect width="37.9286" height="37.9286" fill="white" transform="translate(0.321533 1.52588e-05)"/>
</clipPath>
</defs>
</svg>
