<svg width="39" height="38" viewBox="0 0 39 38" fill="none" xmlns="http://www.w3.org/2000/svg">
<g clip-path="url(#clip0_50_84)">
<path d="M32.706 5.514C30.9672 3.75903 28.8964 2.36769 26.6144 1.42104C24.3325 0.474396 21.8849 -0.00862362 19.4144 0.000132199C9.06229 0.000132199 0.625552 8.4345 0.61607 18.789C0.61607 22.1054 1.48369 25.3317 3.12173 28.1882L0.464355 37.9287L10.4301 35.3164C13.187 36.8167 16.2757 37.6031 19.4144 37.6039H19.4239C29.7784 37.6039 38.2128 29.1696 38.2223 18.8056C38.2246 16.3356 37.7382 13.8895 36.7911 11.6084C35.8439 9.32717 34.4572 7.25594 32.706 5.514ZM19.4144 34.4227C16.6148 34.4236 13.8667 33.6703 11.4589 32.2418L10.89 31.9004L4.97786 33.4508L6.55663 27.6832L6.18683 27.0882C4.62182 24.6 3.79412 21.719 3.7997 18.7795C3.7997 10.184 10.8094 3.17191 19.4239 3.17191C21.4762 3.16823 23.5089 3.57081 25.4048 4.35645C27.3008 5.14208 29.0224 6.29523 30.4706 7.74941C31.9238 9.19793 33.0759 10.9198 33.8603 12.8158C34.6447 14.7118 35.046 16.7443 35.041 18.7961C35.0315 27.4225 28.0218 34.4227 19.4144 34.4227ZM27.9839 22.7265C27.5169 22.4918 25.2104 21.3563 24.7766 21.1951C24.3451 21.041 24.0299 20.9604 23.7217 21.4298C23.4064 21.8968 22.5056 22.9611 22.2354 23.2669C21.9651 23.5822 21.6854 23.6178 21.216 23.3855C20.749 23.1484 19.2343 22.6553 17.4421 21.0505C16.0435 19.806 15.1072 18.2651 14.8274 17.7981C14.5572 17.3287 14.8014 17.0775 15.036 16.8428C15.2423 16.6342 15.503 16.2928 15.7377 16.0226C15.9748 15.7523 16.053 15.5532 16.2071 15.2403C16.3612 14.9227 16.2877 14.6524 16.1715 14.4177C16.053 14.183 15.1166 11.867 14.7208 10.933C14.3415 10.0109 13.9551 10.1389 13.6659 10.1271C13.3956 10.1105 13.0803 10.1105 12.7651 10.1105C12.527 10.1164 12.2927 10.1715 12.0769 10.2722C11.8611 10.373 11.6684 10.5172 11.5111 10.696C11.0796 11.1654 9.87301 12.3008 9.87301 14.6169C9.87301 16.9329 11.5561 19.1588 11.7931 19.4741C12.0255 19.7894 15.0977 24.5281 19.8127 26.5667C20.9268 27.0527 21.8039 27.3395 22.489 27.5576C23.615 27.9179 24.632 27.8634 25.4427 27.7473C26.3435 27.6098 28.2186 26.6094 28.6145 25.5118C29.0032 24.4119 29.0032 23.4732 28.8847 23.2764C28.7686 23.0773 28.4533 22.9611 27.9839 22.7265Z" fill="black"/>
</g>
<defs>
<clipPath id="clip0_50_84">
<rect width="37.9286" height="37.9286" fill="white" transform="translate(0.464355 1.52588e-05)"/>
</clipPath>
</defs>
</svg>
