<svg width="80" height="80" viewBox="0 0 80 80" fill="none" xmlns="http://www.w3.org/2000/svg">
<path d="M13.3333 60C12.3889 60 11.5978 59.68 10.96 59.04C10.32 58.4022 10 57.6111 10 56.6667C10 55.7222 10.32 54.9311 10.96 54.2933C11.5978 53.6533 12.3889 53.3333 13.3333 53.3333H66.6667C67.6111 53.3333 68.4022 53.6533 69.04 54.2933C69.68 54.9311 70 55.7222 70 56.6667C70 57.6111 69.68 58.4022 69.04 59.04C68.4022 59.68 67.6111 60 66.6667 60H13.3333ZM13.3333 43.3333C12.3889 43.3333 11.5978 43.0133 10.96 42.3733C10.32 41.7356 10 40.9444 10 40C10 39.0556 10.32 38.2633 10.96 37.6233C11.5978 36.9856 12.3889 36.6667 13.3333 36.6667H66.6667C67.6111 36.6667 68.4022 36.9856 69.04 37.6233C69.68 38.2633 70 39.0556 70 40C70 40.9444 69.68 41.7356 69.04 42.3733C68.4022 43.0133 67.6111 43.3333 66.6667 43.3333H13.3333ZM13.3333 26.6667C12.3889 26.6667 11.5978 26.3478 10.96 25.71C10.32 25.07 10 24.2778 10 23.3333C10 22.3889 10.32 21.5967 10.96 20.9567C11.5978 20.3189 12.3889 20 13.3333 20H66.6667C67.6111 20 68.4022 20.3189 69.04 20.9567C69.68 21.5967 70 22.3889 70 23.3333C70 24.2778 69.68 25.07 69.04 25.71C68.4022 26.3478 67.6111 26.6667 66.6667 26.6667H13.3333Z" fill="black"/>
</svg>
