<svg width="136" height="136" viewBox="0 0 136 136" fill="none" xmlns="http://www.w3.org/2000/svg">
<g clip-path="url(#clip0_125_144)">
<rect x="4" y="4" width="128" height="128" rx="64" fill="white"/>
<path d="M40.5 81.5C40.5 88.3 36.8333 93 35 94.5C63.5 96.5 65.5 94.5 70.5 89C74.5 84.6 73.1667 76.1667 72 72.5L79 66.5L69.5 57.5L65.5 63.5C64.3333 63 60.2 62.3 53 63.5C44 65 40.5 73 40.5 81.5Z" fill="white"/>
<path d="M336 97.5H287.5V38.5H319V55.5L336 56V97.5Z" fill="white"/>
<path d="M98.3125 37.6875C98.3125 47.9688 88.2187 58.9688 79.6875 66.4375C77.2978 62.2032 73.7968 58.7022 69.5625 56.3125C77.0312 47.7812 88.0312 37.6875 98.3125 37.6875Z" fill="#A959FA"/>
<path d="M98.3125 35.1875C91.6563 35.1875 84.1563 38.875 76.0938 46.0938C70.4375 51.1563 65.5938 56.9375 62.25 61.3125C59.4454 60.4588 56.4798 60.2736 53.5908 60.7716C50.7017 61.2697 47.9693 62.4371 45.6124 64.1805C43.2554 65.9239 41.3393 68.1949 40.0175 70.8117C38.6956 73.4284 38.0047 76.3183 38 79.25C38 89 32.9375 93.3438 32.6875 93.5625C32.2804 93.8771 31.9848 94.314 31.8442 94.8089C31.7036 95.3038 31.7254 95.8308 31.9063 96.3125C32.0661 96.8068 32.3797 97.2372 32.8013 97.5407C33.2229 97.8443 33.7305 98.0052 34.25 98H56.75C59.6817 97.9953 62.5716 97.3044 65.1883 95.9826C67.8051 94.6607 70.0761 92.7446 71.8195 90.3877C73.5629 88.0307 74.7303 85.2983 75.2284 82.4093C75.7264 79.5202 75.5412 76.5546 74.6875 73.75C79.0625 70.4062 84.8438 65.5625 89.9063 59.9062C97.125 51.8437 100.813 44.3437 100.813 37.6875C100.813 37.0245 100.549 36.3886 100.08 35.9197C99.6114 35.4509 98.9755 35.1875 98.3125 35.1875ZM56.75 93H39.4375C41.2188 90.0312 43 85.5 43 79.25C43 76.5305 43.8064 73.8721 45.3173 71.6109C46.8282 69.3497 48.9756 67.5874 51.4881 66.5467C54.0006 65.506 56.7653 65.2337 59.4325 65.7642C62.0997 66.2948 64.5498 67.6043 66.4727 69.5273C68.3957 71.4503 69.7053 73.9003 70.2358 76.5675C70.7664 79.2347 70.4941 81.9994 69.4534 84.5119C68.4126 87.0244 66.6503 89.1718 64.3891 90.6827C62.1279 92.1936 59.4695 93 56.75 93ZM66.875 63.5C67.7813 62.3437 68.8438 61.0312 70.0625 59.5937C72.5639 61.2825 74.7175 63.4362 76.4063 65.9375C74.9688 67.1563 73.6563 68.2188 72.5 69.125C71.0535 66.8655 69.1345 64.9465 66.875 63.5ZM80.1875 62.5937C78.3178 59.9738 76.0262 57.6822 73.4063 55.8125C79.5313 49.1875 87.7813 41.9375 95.5313 40.4688C94.0625 48.2188 86.8125 56.4687 80.1875 62.5937Z" fill="black"/>
</g>
<rect x="4" y="4" width="128" height="128" rx="64" stroke="#5A1CC0" stroke-width="7"/>
<defs>
<clipPath id="clip0_125_144">
<rect x="4" y="4" width="128" height="128" rx="64" fill="white"/>
</clipPath>
</defs>
</svg>
