<svg width="136" height="136" viewBox="0 0 136 136" fill="none" xmlns="http://www.w3.org/2000/svg">
<rect x="4" y="4" width="128" height="128" rx="64" fill="white"/>
<path d="M42 98V39H74.5V55L92.5 57V98H42Z" fill="white"/>
<path d="M92.5 55.5H75V38L92.5 55.5Z" fill="#A959FA"/>
<path d="M95 55.5C95.0049 55.1674 94.9408 54.8374 94.8117 54.5308C94.6826 54.2242 94.4914 53.9477 94.25 53.7188L76.7812 36.2188C76.305 35.7545 75.6651 35.4963 75 35.5H45C43.6739 35.5 42.4021 36.0268 41.4645 36.9645C40.5268 37.9022 40 39.174 40 40.5V95.5C40 96.8261 40.5268 98.0979 41.4645 99.0356C42.4021 99.9733 43.6739 100.5 45 100.5H90C91.3261 100.5 92.5979 99.9733 93.5355 99.0356C94.4732 98.0979 95 96.8261 95 95.5V55.5ZM77.5 44.0313L86.4687 53H77.5V44.0313ZM90 95.5H45V40.5H72.5V55.5C72.5 56.1631 72.7634 56.799 73.2322 57.2678C73.7011 57.7366 74.337 58 75 58H90V95.5ZM83.0312 73.7188C83.5007 74.1928 83.7641 74.8329 83.7641 75.5C83.7641 76.1672 83.5007 76.8073 83.0312 77.2813L75.5312 84.7813C75.0479 85.2347 74.4126 85.491 73.75 85.5C73.0861 85.4972 72.4486 85.24 71.9688 84.7813C71.4993 84.3073 71.2359 83.6672 71.2359 83C71.2359 82.3329 71.4993 81.6928 71.9688 81.2188L77.7187 75.5L71.9688 69.7813C71.5701 69.2956 71.3664 68.6789 71.3972 68.0513C71.428 67.4236 71.6912 66.8299 72.1355 66.3856C72.5799 65.9412 73.1736 65.6781 73.8012 65.6472C74.4289 65.6164 75.0455 65.8201 75.5312 66.2188L83.0312 73.7188ZM63.0312 69.7813L57.2813 75.5L63.0312 81.2188C63.5007 81.6928 63.7641 82.3329 63.7641 83C63.7641 83.6672 63.5007 84.3073 63.0312 84.7813C62.5479 85.2347 61.9126 85.491 61.25 85.5C60.5861 85.4972 59.9486 85.24 59.4688 84.7813L51.9688 77.2813C51.4993 76.8073 51.2359 76.1672 51.2359 75.5C51.2359 74.8329 51.4993 74.1928 51.9688 73.7188L59.4688 66.2188C59.9545 65.8201 60.5711 65.6164 61.1988 65.6472C61.8264 65.6781 62.4201 65.9412 62.8645 66.3856C63.3088 66.8299 63.572 67.4236 63.6028 68.0513C63.6336 68.6789 63.4299 69.2956 63.0312 69.7813Z" fill="black"/>
<rect x="4" y="4" width="128" height="128" rx="64" stroke="#5A1CC0" stroke-width="7"/>
</svg>
