<svg width="135" height="136" viewBox="0 0 135 136" fill="none" xmlns="http://www.w3.org/2000/svg">
<rect x="3.5" y="4" width="128" height="128" rx="64" fill="white"/>
<path d="M77.625 78.625C83.493 78.625 88.25 73.868 88.25 68C88.25 62.132 83.493 57.375 77.625 57.375C71.757 57.375 67 62.132 67 68C67 73.868 71.757 78.625 77.625 78.625Z" fill="#A959FA"/>
<path d="M56.375 57.375H67V36.125H56.375C53.5571 36.125 50.8546 37.2444 48.862 39.237C46.8694 41.2296 45.75 43.9321 45.75 46.75C45.75 49.5679 46.8694 52.2704 48.862 54.263C50.8546 56.2556 53.5571 57.375 56.375 57.375ZM45.75 89.25C45.75 92.0679 46.8694 94.7704 48.862 96.763C50.8546 98.7556 53.5571 99.875 56.375 99.875C59.1929 99.875 61.8954 98.7556 63.888 96.763C65.8806 94.7704 67 92.0679 67 89.25V78.625H56.375C53.5571 78.625 50.8546 79.7444 48.862 81.737C46.8694 83.7296 45.75 86.4321 45.75 89.25Z" fill="#A959FA"/>
<path d="M45 68.5001C45.4 80.1001 59.5 79.6667 66.5 78.0001L69.5 57.5001C75 58 86.3 56.4 87.5 46C88.7 35.6 74 34.6667 66.5 35.5V57.5001C59.1667 56.3334 44.6 56.9001 45 68.5001Z" fill="white"/>
<path d="M85.3126 57.375C87.5559 55.7481 89.2267 53.4529 90.0856 50.8182C90.9446 48.1835 90.9476 45.3446 90.0942 42.7081C89.2408 40.0716 87.5748 37.7729 85.3349 36.1413C83.0951 34.5096 80.3962 33.6288 77.6251 33.625H56.3751C53.6039 33.6288 50.905 34.5096 48.6652 36.1413C46.4253 37.7729 44.7593 40.0716 43.9059 42.7081C43.0525 45.3446 43.0555 48.1835 43.9145 50.8182C44.7734 53.4529 46.4442 55.7481 48.6876 57.375C47.0033 58.588 45.6316 60.1839 44.6855 62.0313C43.7394 63.8787 43.246 65.9245 43.246 68C43.246 70.0755 43.7394 72.1213 44.6855 73.9687C45.6316 75.8161 47.0033 77.412 48.6876 78.625C46.8658 79.9415 45.4126 81.7038 44.4673 83.743C43.522 85.7822 43.1162 88.03 43.2888 90.271C43.4614 92.512 44.2067 94.6711 45.4531 96.5415C46.6995 98.4119 48.4054 99.9309 50.4073 100.953C52.4092 101.975 54.64 102.466 56.8859 102.378C59.1319 102.291 61.3177 101.628 63.234 100.453C65.1504 99.2786 66.7329 97.6316 67.8301 95.6699C68.9273 93.7082 69.5023 91.4977 69.5001 89.25V78.2812C70.8624 79.4307 72.4446 80.2907 74.1502 80.8086C75.8557 81.3266 77.6489 81.4917 79.4204 81.2939C81.1919 81.0961 82.9045 80.5396 84.4539 79.6582C86.0032 78.7768 87.3568 77.5891 88.432 76.1675C89.5073 74.7458 90.2817 73.1201 90.7081 71.3893C91.1344 69.6586 91.2038 67.8591 90.9119 66.1007C90.62 64.3423 89.973 62.6617 89.0103 61.1615C88.0476 59.6614 86.7895 58.373 85.3126 57.375ZM85.7501 46.75C85.7418 48.9024 84.8832 50.9642 83.3612 52.4861C81.8393 54.0081 79.7774 54.8668 77.6251 54.875H69.5001V38.625H77.6251C79.7774 38.6332 81.8393 39.4919 83.3612 41.0139C84.8832 42.5358 85.7418 44.5976 85.7501 46.75ZM48.2501 46.75C48.2583 44.5976 49.117 42.5358 50.6389 41.0139C52.1609 39.4919 54.2227 38.6332 56.3751 38.625H64.5001V54.875H56.3751C54.2227 54.8668 52.1609 54.0081 50.6389 52.4861C49.117 50.9642 48.2583 48.9024 48.2501 46.75ZM48.2501 68C48.2583 65.8476 49.117 63.7858 50.6389 62.2639C52.1609 60.7419 54.2227 59.8832 56.3751 59.875H64.5001V76.125H56.3751C54.2227 76.1168 52.1609 75.2581 50.6389 73.7362C49.117 72.2142 48.2583 70.1524 48.2501 68ZM56.3751 97.375C54.2202 97.375 52.1535 96.519 50.6298 94.9952C49.1061 93.4715 48.2501 91.4049 48.2501 89.25C48.2501 87.0951 49.1061 85.0285 50.6298 83.5048C52.1535 81.981 54.2202 81.125 56.3751 81.125H64.5001V89.25C64.4918 91.4024 63.6332 93.4642 62.1112 94.9862C60.5893 96.5081 58.5274 97.3668 56.3751 97.375ZM77.6251 76.125C75.4702 76.125 73.4035 75.269 71.8798 73.7452C70.3561 72.2215 69.5001 70.1549 69.5001 68C69.5001 65.8451 70.3561 63.7785 71.8798 62.2548C73.4035 60.731 75.4702 59.875 77.6251 59.875C79.7799 59.875 81.8466 60.731 83.3703 62.2548C84.894 63.7785 85.7501 65.8451 85.7501 68C85.7501 70.1549 84.894 72.2215 83.3703 73.7452C81.8466 75.269 79.7799 76.125 77.6251 76.125Z" fill="black"/>
<rect x="3.5" y="4" width="128" height="128" rx="64" stroke="#5A1CC0" stroke-width="7"/>
</svg>
