<svg width="30" height="43" viewBox="0 0 30 43" fill="none" xmlns="http://www.w3.org/2000/svg">
<g clip-path="url(#clip0_125_84)">
<path d="M15.5445 13.7884H7.9489C4.31684 13.7884 1.36523 10.8177 1.36523 7.14421C1.36523 3.47069 4.31684 0.5 7.9489 0.5H15.5445V13.7884Z" fill="white" stroke="black"/>
<path d="M14.5326 28.0768H7.9489C4.31684 28.0768 1.36523 25.1061 1.36523 21.4326C1.36523 17.7591 4.31684 14.7884 7.9489 14.7884H14.5326V28.0768Z" fill="white" stroke="black"/>
<path d="M7.9489 42.3653C4.31684 42.3653 1.36523 39.3946 1.36523 35.721C1.36523 32.0475 4.31684 29.0768 7.9489 29.0768H14.5326V35.721C14.5326 39.3946 11.581 42.3653 7.9489 42.3653Z" fill="white" stroke="black"/>
<path d="M22.1163 13.7884H15.5326V0.5H22.1163C25.7483 0.5 28.6999 3.47069 28.6999 7.14421C28.6999 10.8177 25.7483 13.7884 22.1163 13.7884Z" fill="white" stroke="black"/>
<path d="M28.6999 21.4326C28.6999 25.1061 25.7483 28.0768 22.1163 28.0768C18.4842 28.0768 15.5326 25.1061 15.5326 21.4326C15.5326 17.7591 18.4842 14.7884 22.1163 14.7884C25.7483 14.7884 28.6999 17.7591 28.6999 21.4326Z" fill="white" stroke="black"/>
</g>
<defs>
<clipPath id="clip0_125_84">
<rect width="28.3346" height="42.8652" fill="white" transform="translate(0.865234)"/>
</clipPath>
</defs>
</svg>
