<svg width="43" height="43" viewBox="0 0 43 43" fill="none" xmlns="http://www.w3.org/2000/svg">
<g clip-path="url(#clip0_125_57)">
<mask id="mask0_125_57" style="mask-type:alpha" maskUnits="userSpaceOnUse" x="0" y="0" width="43" height="43">
<path d="M32.3061 42.0402L32.5229 42.4908L32.3061 42.0402C31.7525 42.3066 31.1271 42.3205 30.5781 42.1066C30.3039 41.9998 30.0491 41.8363 29.8317 41.6188L29.8235 41.6106L29.815 41.6029L12.9201 26.1894L12.6125 25.9087L12.2808 26.1605L4.92176 31.7466L5.22407 32.1449L4.92176 31.7466C4.42864 32.1209 3.73901 32.0903 3.28101 31.6737L2.94455 32.0435L3.281 31.6737L0.920716 29.5266L0.584266 29.8965L0.920711 29.5266C0.36032 29.0169 0.359668 28.1351 0.919326 27.6245L7.30135 21.802L7.70622 21.4327L7.30135 21.0633L0.919339 15.2409C0.359658 14.7302 0.360326 13.8484 0.920711 13.3387L0.585095 12.9697L0.920716 13.3387L3.281 11.1917C3.73901 10.775 4.42865 10.7444 4.92177 11.1187L12.2808 16.7048L12.6125 16.9566L12.9201 16.676L29.815 1.26243L29.8235 1.25464L29.8317 1.24647C29.9132 1.16488 30 1.0909 30.0911 1.02466C30.729 0.560973 31.5795 0.475464 32.3061 0.825085L41.1314 5.07176L41.3428 4.63241L41.1314 5.07176C41.8855 5.43463 42.3652 6.19796 42.3652 7.0356V35.8298C42.3652 36.6675 41.8855 37.4308 41.1314 37.7937L32.3061 42.0402ZM32.6554 11.7017V10.6945L31.8531 11.3035L19.0338 21.0344L18.5092 21.4327L19.0338 21.8309L31.8531 31.5618L32.6554 32.1708V31.1635V11.7017Z" fill="white" stroke="black"/>
</mask>
<g mask="url(#mask0_125_57)">
<path d="M29.8068 1.26257L29.8153 1.2548L29.8235 1.24665C30.4755 0.594574 31.4685 0.425819 32.2994 0.825875L40.7446 4.89206C40.3905 4.94651 40.0388 5.08881 39.7172 5.33276L39.9242 5.60558L39.7172 5.33276L4.89904 31.7466C4.40548 32.121 3.71509 32.0903 3.25668 31.6736L0.894959 29.5265L0.559114 29.896L0.894954 29.5265C0.334231 29.0168 0.333596 28.1352 0.893559 27.6246L0.556826 27.2553L0.893569 27.6246L29.8068 1.26257Z" fill="white" stroke="black"/>
<g filter="url(#filter0_d_125_57)">
<path d="M32.2994 42.0395L32.2994 42.0395C31.4685 42.4396 30.4755 42.2708 29.8235 41.6187L29.8153 41.6106L29.8068 41.6028L0.893569 15.2407C0.333586 14.7302 0.334238 13.8485 0.894954 13.3388L0.894959 13.3388L3.25668 11.1918C3.71509 10.775 4.40548 10.7443 4.89904 11.1188L39.7172 37.5326C40.0388 37.7765 40.3905 37.9188 40.7446 37.9733L32.2994 42.0395Z" fill="white" stroke="black"/>
</g>
<g filter="url(#filter1_d_125_57)">
<path d="M32.2999 42.0402L32.2999 42.0402C32.2943 42.0429 32.2887 42.0455 32.2832 42.0481C32.5108 41.7234 32.6489 41.3215 32.6489 40.8625V2.00277C32.6489 1.54381 32.5108 1.14189 32.2832 0.817166C32.2888 0.819797 32.2944 0.822454 32.2999 0.825136L32.5149 0.378144L32.2999 0.825136L41.1306 5.07182L41.3472 4.62122L41.1306 5.07182C41.8853 5.43477 42.3652 6.19815 42.3652 7.03561V35.8299C42.3652 36.6673 41.8853 37.4307 41.1305 37.7936L32.2999 42.0402Z" fill="white" stroke="black"/>
</g>
<g style="mix-blend-mode:overlay" opacity="0.25">
<path d="M0.558266 29.8965L0.89471 29.5267C0.334319 29.0169 0.333667 28.1351 0.893327 27.6245L7.27534 21.8021L7.68021 21.4327L7.27534 21.0633L0.893327 15.2409C0.333676 14.7303 0.334309 13.8485 0.894715 13.3387C0.894717 13.3387 0.894719 13.3387 0.894722 13.3387L3.25499 11.1917L0.558266 29.8965ZM0.558266 29.8965L0.894715 29.5267L3.255 31.6737L3.00338 31.9503L3.25501 31.6737C3.71301 32.0903 4.40268 32.121 4.89575 31.7467L12.2548 26.1605L12.5865 25.9088L12.8941 26.1894L29.789 41.6029L29.7975 41.6107L29.8056 41.6188C30.0231 41.8364 30.278 41.9999 30.552 42.1067C31.1011 42.3206 31.7266 42.3067 32.2801 42.0403L41.1054 37.7938C41.8595 37.4309 42.3392 36.6676 42.3392 35.8299V7.03568C42.3392 6.198 41.8595 5.43467 41.1054 5.07181L41.3165 4.63304M0.558266 29.8965L41.3165 4.63304M41.3165 4.63304L41.1054 5.07181L32.2801 0.825145C31.5536 0.475529 30.7029 0.561032 30.0651 1.02472C29.974 1.09096 29.8872 1.16495 29.8057 1.24653L29.7975 1.25471L29.789 1.26249L12.8941 16.676L12.5865 16.9566L12.2548 16.7049L4.89575 11.1188L4.89574 11.1188C4.40269 10.7445 3.71303 10.7751 3.255 11.1917L41.3165 4.63304ZM32.6294 11.7018V10.6945L31.8271 11.3036L19.0078 21.0344L18.4832 21.4327L19.0078 21.831L31.8271 31.5619L32.6294 32.1709V31.1636V11.7018Z" fill="url(#paint0_linear_125_57)" stroke="black"/>
</g>
</g>
</g>
<defs>
<filter id="filter0_d_125_57" x="-6.08042" y="4.30288" width="55.0001" height="44.506" filterUnits="userSpaceOnUse" color-interpolation-filters="sRGB">
<feFlood flood-opacity="0" result="BackgroundImageFix"/>
<feColorMatrix in="SourceAlpha" type="matrix" values="0 0 0 0 0 0 0 0 0 0 0 0 0 0 0 0 0 0 127 0" result="hardAlpha"/>
<feOffset/>
<feGaussianBlur stdDeviation="3.02721"/>
<feColorMatrix type="matrix" values="0 0 0 0 0 0 0 0 0 0 0 0 0 0 0 0 0 0 0.25 0"/>
<feBlend mode="overlay" in2="BackgroundImageFix" result="effect1_dropShadow_125_57"/>
<feBlend mode="normal" in="SourceGraphic" in2="effect1_dropShadow_125_57" result="shape"/>
</filter>
<filter id="filter1_d_125_57" x="23.4154" y="-5.94388" width="25.5042" height="54.7531" filterUnits="userSpaceOnUse" color-interpolation-filters="sRGB">
<feFlood flood-opacity="0" result="BackgroundImageFix"/>
<feColorMatrix in="SourceAlpha" type="matrix" values="0 0 0 0 0 0 0 0 0 0 0 0 0 0 0 0 0 0 127 0" result="hardAlpha"/>
<feOffset/>
<feGaussianBlur stdDeviation="3.02721"/>
<feColorMatrix type="matrix" values="0 0 0 0 0 0 0 0 0 0 0 0 0 0 0 0 0 0 0.25 0"/>
<feBlend mode="overlay" in2="BackgroundImageFix" result="effect1_dropShadow_125_57"/>
<feBlend mode="normal" in="SourceGraphic" in2="effect1_dropShadow_125_57" result="shape"/>
</filter>
<linearGradient id="paint0_linear_125_57" x1="21.4066" y1="0.110595" x2="21.4066" y2="42.7549" gradientUnits="userSpaceOnUse">
<stop stop-color="white"/>
<stop offset="1" stop-color="white" stop-opacity="0"/>
</linearGradient>
<clipPath id="clip0_125_57">
<rect width="42.8652" height="42.8652" fill="white"/>
</clipPath>
</defs>
</svg>
