<svg width="44" height="43" viewBox="0 0 44 43" fill="none" xmlns="http://www.w3.org/2000/svg">
<g clip-path="url(#clip0_125_80)">
<path d="M1.29565 4.7628C1.29565 2.40869 3.20434 0.5 5.55846 0.5H38.8981C41.2522 0.5 43.1609 2.40869 43.1609 4.7628V38.1024C43.1609 40.4565 41.2522 42.3652 38.8981 42.3652H5.55846C3.20434 42.3652 1.29565 40.4565 1.29565 38.1024V4.7628Z" fill="white" stroke="black"/>
<path d="M15.6008 20.4659V16.1863H17.481C17.9327 16.1933 18.2745 16.3698 18.5462 16.7428C18.8292 17.1312 18.9969 17.688 18.9969 18.4654C18.9969 19.2162 18.8323 19.7032 18.579 20.0054C18.3334 20.2985 17.9814 20.4659 17.4501 20.4659H15.6008Z" fill="black" stroke="black"/>
<path d="M15.1008 30.2675H15.6008V29.7675V24.314H17.3798C19.2178 24.314 20.7214 23.806 21.8219 22.7295C22.9219 21.6546 23.4499 20.2053 23.4499 18.4416C23.4499 16.675 22.9147 15.1951 21.8165 14.0495C20.7113 12.8967 19.2363 12.3369 17.45 12.3369H11.6823H11.1823V12.8369V29.7675V30.2675H11.6823H15.1008ZM24.5418 25.3715H24.0418V25.8715C24.0418 26.7107 24.2689 27.4959 24.7159 28.2165C25.1652 28.9407 25.7888 29.5042 26.5704 29.9042C27.3569 30.3067 28.2518 30.4997 29.2404 30.4997C30.6953 30.4997 31.9255 30.1373 32.8803 29.3658C33.8465 28.5848 34.3329 27.5371 34.3329 26.2668C34.3329 25.1981 34.0249 24.2808 33.3712 23.564C32.7383 22.87 31.7073 22.2846 30.3437 21.7789C29.8935 21.5861 29.5329 21.4181 29.258 21.275C28.9729 21.1266 28.8067 21.0184 28.7273 20.9504C28.5687 20.8146 28.5294 20.6993 28.5294 20.592C28.5294 20.3035 28.6088 20.1448 28.7122 20.0457C28.835 19.9281 28.9921 19.8596 29.2273 19.8596C29.5507 19.8596 29.71 19.9522 29.8025 20.0633C29.9097 20.1921 30.0061 20.4398 30.0061 20.8944V21.3944H30.5061H33.7972H34.2972V20.8944C34.2972 19.5638 33.8312 18.4603 32.8785 17.643C31.9364 16.8347 30.7057 16.4532 29.2392 16.4532C27.836 16.4532 26.6533 16.8398 25.7476 17.6572C24.8451 18.4718 24.3907 19.5166 24.3907 20.7551C24.3907 21.7354 24.6776 22.5867 25.2738 23.2793C25.8613 23.9617 26.883 24.5665 28.2554 25.1237C29.1834 25.5299 29.7029 25.8207 29.9031 25.9968C30.0944 26.1652 30.1347 26.2963 30.1347 26.3942C30.1347 26.7029 30.0516 26.8463 29.9681 26.9218C29.875 27.006 29.686 27.0921 29.3094 27.0921C28.8064 27.0921 28.5647 26.9663 28.4465 26.832C28.3024 26.6682 28.1846 26.3717 28.1696 25.857L28.1555 25.3715H27.6698H24.5418ZM4.8678 38.7931V4.07208H39.5888V38.7931H4.8678Z" fill="black" stroke="black"/>
</g>
<defs>
<clipPath id="clip0_125_80">
<rect width="42.8652" height="42.8652" fill="white" transform="translate(0.795654)"/>
</clipPath>
</defs>
</svg>
