<svg width="43" height="43" viewBox="0 0 43 43" fill="none" xmlns="http://www.w3.org/2000/svg">
<g clip-path="url(#clip0_125_73)">
<path d="M0.565186 4.7628C0.565186 2.40869 2.47387 0.5 4.82799 0.5H38.1676C40.5217 0.5 42.4304 2.40869 42.4304 4.7628V38.1024C42.4304 40.4565 40.5217 42.3652 38.1676 42.3652H4.82799C2.47387 42.3652 0.565186 40.4565 0.565186 38.1024V4.7628Z" fill="white" stroke="black"/>
<path d="M3.63733 3.57208V39.2931H39.3584V3.57208H3.63733Z" fill="black" stroke="black"/>
<path d="M30.4473 30.0631C29.9413 30.2014 29.3976 30.2675 28.8159 30.2675C27.8889 30.2675 27.042 30.1018 26.2848 29.7601C25.5388 29.424 24.9015 28.9604 24.3748 28.3722C23.8491 27.785 23.4536 27.1004 23.1822 26.3234L23.1819 26.3227C22.9123 25.5473 22.778 24.7222 22.778 23.8486V23.408C22.778 22.4375 22.9065 21.5369 23.168 20.7103C23.4273 19.8867 23.8025 19.1651 24.2976 18.5537C24.793 17.9389 25.3988 17.4584 26.1057 17.1135L26.1067 17.113C26.8248 16.7646 27.6209 16.5937 28.4849 16.5937C29.3491 16.5937 30.1328 16.7501 30.8228 17.0763C31.5038 17.3982 32.0778 17.8535 32.5424 18.4375L32.5424 18.4376C33.0047 19.0191 33.3454 19.7117 33.5703 20.5043C33.7944 21.2936 33.9049 22.1619 33.9049 23.1044V24.4939V24.9939H33.4049H31.7163L30.4473 30.0631ZM30.4473 30.0631C30.4471 30.0632 30.4468 30.0632 30.4466 30.0633L30.3162 29.5807L30.4481 30.0629C30.4478 30.063 30.4476 30.063 30.4473 30.0631ZM11.6889 30.0425H12.0594L12.1672 29.688L13.0905 26.6538H17.7743L18.7076 29.6883L18.8162 30.0413H19.1855H22.4742H23.1735L22.9474 29.3796L17.3285 12.936L17.2128 12.5977H16.8553H13.9893H13.6311L13.5159 12.9368L7.92674 29.3816L7.70212 30.0425H8.40015H11.6889ZM27.0499 25.3694C26.9962 25.252 26.9495 25.1268 26.9104 24.9939H31.6389L31.295 25.4806C31.008 25.8868 30.6757 26.1718 30.3008 26.352L30.2994 26.3527C29.9125 26.5402 29.4853 26.6361 29.0124 26.6361C28.6827 26.6361 28.4018 26.5821 28.1623 26.4826L27.9705 26.9444L28.1629 26.4829C27.9119 26.3782 27.6971 26.2353 27.5156 26.0538C27.3313 25.8696 27.1751 25.6439 27.0502 25.3701L27.0499 25.3694ZM27.8514 20.3711L27.8523 20.3707C28.0158 20.2873 28.2176 20.2383 28.4766 20.2383C28.7636 20.2383 28.9877 20.2859 29.1647 20.3646C29.3471 20.4473 29.4874 20.5568 29.5962 20.6937C29.7126 20.84 29.8046 21.0193 29.8671 21.2409L29.8677 21.2428C29.9141 21.4051 29.9466 21.58 29.964 21.7685H26.9326C26.964 21.6417 26.9999 21.5217 27.0402 21.4083L27.0404 21.4077C27.1344 21.1422 27.2525 20.9268 27.3888 20.7544C27.5211 20.5869 27.6749 20.4606 27.8514 20.3711ZM14.23 22.9092L15.4253 18.968L16.6328 22.9092H14.23Z" fill="white" stroke="black"/>
</g>
<defs>
<clipPath id="clip0_125_73">
<rect width="42.8652" height="42.8652" fill="white" transform="translate(0.0651855)"/>
</clipPath>
</defs>
</svg>
