<svg width="44" height="43" viewBox="0 0 44 43" fill="none" xmlns="http://www.w3.org/2000/svg">
<g clip-path="url(#clip0_125_69)">
<path d="M0.699951 4.7628C0.699951 2.40869 2.60864 0.5 4.96276 0.5H38.3024C40.6565 0.5 42.5652 2.40869 42.5652 4.7628V38.1024C42.5652 40.4565 40.6565 42.3652 38.3024 42.3652H4.96276C2.60864 42.3652 0.699951 40.4565 0.699951 38.1024V4.7628Z" fill="white" stroke="black"/>
<path d="M20.781 29.8942L20.8788 30.2675H21.2647H24.9166H25.598L25.3935 29.6175L20.0675 12.6869L19.9574 12.3369H19.5906H16.4626H16.095L15.9853 12.6878L10.6951 29.6184L10.4922 30.2675H11.1723H14.7885H15.1745L15.2722 29.894L16.0806 26.8026H19.9714L20.781 29.8942ZM29.7889 30.2675H30.2889V29.7675V17.1866V16.6866H29.7889H26.4871H25.9871V17.1866V29.7675V30.2675H26.4871H29.7889ZM29.7934 15.5339L29.794 15.5332C30.2137 15.098 30.4163 14.5505 30.4163 13.93C30.4163 13.3025 30.2131 12.7501 29.781 12.3196C29.3448 11.885 28.7747 11.6856 28.1255 11.6856C27.4777 11.6856 26.905 11.883 26.4687 12.3209C26.0399 12.7512 25.8347 13.301 25.8347 13.93C25.8347 14.5497 26.0356 15.0978 26.4576 15.5339C26.8917 15.9823 27.4656 16.1863 28.1255 16.1863C28.7854 16.1863 29.3594 15.9823 29.7934 15.5339ZM4.27209 38.7931V4.07208H38.9931V38.7931H4.27209Z" fill="black" stroke="black"/>
<path d="M17.0878 22.9532L18.0212 19.3913L18.9545 22.9532H17.0878Z" fill="black" stroke="black"/>
</g>
<defs>
<clipPath id="clip0_125_69">
<rect width="42.8652" height="42.8652" fill="white" transform="translate(0.199951)"/>
</clipPath>
</defs>
</svg>
