<svg width="44" height="43" viewBox="0 0 44 43" fill="none" xmlns="http://www.w3.org/2000/svg">
<g clip-path="url(#clip0_125_77)">
<path d="M1.43042 4.7628C1.43042 2.40869 3.33911 0.5 5.69322 0.5H39.0329C41.387 0.5 43.2957 2.40869 43.2957 4.7628V38.1024C43.2957 40.4565 41.387 42.3652 39.0329 42.3652H5.69322C3.33911 42.3652 1.43042 40.4565 1.43042 38.1024V4.7628Z" fill="white" stroke="black"/>
<path d="M16.4262 30.2675H16.9262V29.7675V24.314H18.7052C20.5432 24.314 22.0467 23.806 23.1471 22.7297C24.2473 21.6548 24.7753 20.2055 24.7753 18.4416C24.7753 16.675 24.2402 15.1951 23.1419 14.0495C22.0367 12.8967 20.5618 12.3369 18.7755 12.3369H12.8375H12.3375V12.8369V29.7675V30.2675H12.8375H16.4262ZM33.2623 20.8579L33.798 20.9174L33.8172 20.3788L33.9363 17.0448L33.9478 16.7236L33.6602 16.5798C33.4589 16.4791 33.2375 16.4419 33.0502 16.4249C32.8637 16.4079 32.666 16.4079 32.4951 16.4079H32.484C31.9199 16.4079 31.3984 16.5507 30.9448 16.872C30.8652 16.9284 30.7888 16.9895 30.7155 17.0551L30.6783 16.6461H30.2217H27.1259H26.6259V17.1461V29.7675V30.2675H27.1259H30.4598H30.9598V29.7675V21.5069C31.0526 21.2221 31.1909 21.0522 31.3575 20.9439C31.5422 20.8238 31.8148 20.7453 32.2192 20.742L33.2623 20.8579ZM5.00256 38.7931V4.07208H39.7236V38.7931H5.00256ZM16.9262 20.4658V16.1863H18.8064C19.2582 16.1932 19.5999 16.3697 19.8717 16.7428C20.1546 17.1311 20.3223 17.6879 20.3223 18.4654C20.3223 19.2162 20.1577 19.7031 19.9045 20.0053C19.6588 20.2984 19.3068 20.4658 18.7755 20.4658H16.9262Z" fill="black" stroke="black"/>
</g>
<defs>
<clipPath id="clip0_125_77">
<rect width="42.8652" height="42.8652" fill="white" transform="translate(0.93042)"/>
</clipPath>
</defs>
</svg>
